Coordinates
version=1
nRows=17
nColumns=36
inDegrees=yes

Units are S.I. units (second, meters, Newtons, ...)
If the header above contains a line with 'inDegrees', this indicates whether rotational values are in degrees (yes) or radians (no).

endheader
time	pelvis_tilt	pelvis_list	pelvis_rotation	pelvis_tx	pelvis_ty	pelvis_tz	hip_flexion_r	hip_adduction_r	hip_rotation_r	knee_angle_r	knee_angle_r_beta	ankle_angle_r	subtalar_angle_r	mtp_angle_r	hip_flexion_l	hip_adduction_l	hip_rotation_l	knee_angle_l	knee_angle_l_beta	ankle_angle_l	subtalar_angle_l	mtp_angle_l	lumbar_extension	lumbar_bending	lumbar_rotation	arm_flex_r	arm_add_r	arm_rot_r	elbow_flex_r	pro_sup_r	arm_flex_l	arm_add_l	arm_rot_l	elbow_flex_l	pro_sup_l
      3.34000000	     -9.03072169	     -0.99171516	     -2.07409837	     -0.46042129	      0.75271474	     -0.60776167	     73.34338074	      0.98012764	      1.65333913	     89.42352517	      1.56073494	     26.21341228	    -14.21941717	     -7.49999753	     72.81847118	     -1.74685249	      3.15728438	     90.66805235	      1.58245604	     29.41255122	     -9.47613889	     -7.49999753	    -31.31413436	      0.80466526	     -4.30336103	     12.94101910	    -25.95004397	     22.40924091	     69.18829473	     98.41040587	     -6.75719166	    -17.82700140	      4.05017438	     78.26365843	     79.02356092
      3.35000000	     -9.14455232	     -0.85659611	     -2.08898670	     -0.45666032	      0.76212458	     -0.60777279	     72.21144650	      0.90621242	      1.73445658	     88.00753745	      1.53602130	     25.93882227	    -14.27908931	     -7.49999755	     71.57230359	     -1.62316193	      3.02585879	     89.14440942	      1.55586345	     29.19979357	     -9.69222407	     -7.49999755	    -30.80999365	      0.74015577	     -4.40022206	     12.58795779	    -25.32200595	     21.88720881	     68.22000198	     98.60765052	     -6.58937540	    -17.28245116	      3.65808690	     77.22991678	     78.88135656
      3.36000000	     -9.22416915	     -0.72290422	     -2.11012471	     -0.45280885	      0.77161778	     -0.60786660	     71.05078364	      0.79855895	      1.77074794	     86.60047080	      1.51146335	     25.64993185	    -14.27923889	     -7.49999758	     70.27222680	     -1.45518231	      2.91234016	     87.58633187	      1.52866987	     28.95327332	     -9.98696076	     -7.49999758	    -30.29035248	      0.67962930	     -4.53138486	     12.21174869	    -24.69562585	     21.29610839	     67.25070000	     98.76362068	     -6.43118647	    -16.73348412	      3.29777685	     76.15818806	     78.73302532
      3.37000000	     -9.63161761	     -0.66452178	     -2.14270019	     -0.44903640	      0.78023730	     -0.60784112	     70.23327207	      0.81205757	      1.82436048	     85.14314079	      1.48602814	     25.53103884	    -14.17740471	     -7.49999758	     69.40015314	     -1.33983371	      2.93282498	     86.08513708	      1.50246908	     28.82850804	     -9.99139590	     -7.49999758	    -29.43434230	      0.69364692	     -4.65886429	     11.74532192	    -24.35078207	     21.14232259	     66.91076781	     98.79960747	     -6.65531734	    -16.47924590	      3.22904812	     75.82659032	     78.68878281
      3.38000000	     -9.58808161	     -0.52260203	     -2.12266275	     -0.44492254	      0.79000703	     -0.60780188	     68.83319169	      0.80754757	      2.00882411	     83.62176867	      1.45947519	     25.15947237	    -14.48468952	     -7.49999761	     67.93934425	     -1.10980627	      2.85621557	     84.44528281	      1.47384822	     28.28113352	    -10.62851460	     -7.49999761	    -28.88242552	      0.60386675	     -4.78925854	     11.39495645	    -23.19956712	     19.76960866	     65.05042654	     98.91337836	     -6.35663502	    -15.85562968	      2.86021774	     74.15238724	     78.46948152
      3.39000000	     -9.68458295	     -0.46381904	     -2.10968656	     -0.44104294	      0.79956024	     -0.60763972	     67.55084051	      0.92154063	      2.20612746	     81.97912246	      1.43080560	     24.83790909	    -14.71997988	     -7.49999763	     66.67185703	     -0.97852967	      2.86977886	     82.78843154	      1.44493071	     27.80080591	    -10.93409977	     -7.49999763	    -28.26409746	      0.57966214	     -4.83693021	     10.94231642	    -22.47617587	     18.91965230	     63.89830926	     99.05161449	     -6.23059962	    -15.49936953	      2.78014978	     73.12745670	     78.34292865
      3.40000000	     -9.80475418	     -0.44053636	     -2.13022428	     -0.43715454	      0.80913270	     -0.60754948	     66.27590483	      1.13513343	      2.45449215	     80.25949744	      1.40079249	     24.10829185	    -15.48493692	     -7.49999799	     65.43160539	     -0.87136533	      2.89808035	     81.10497290	      1.41554882	     27.05454546	    -11.65848082	     -7.49999799	    -27.57652858	      0.61659942	     -3.95032442	      9.35764498	    -21.89167502	     16.14500321	     63.44610489	    102.62257293	     -5.20631613	    -15.33071204	      4.18627967	     71.36044923	     78.35621110
      3.41000000	     -9.75229670	     -0.45692452	     -2.13781893	     -0.43311852	      0.81895720	     -0.60762830	     64.80529854	      1.26038178	      2.60354990	     78.54899962	      1.37093867	     23.83934361	    -15.56595789	     -7.49999800	     63.98610371	     -0.81096292	      2.93172067	     79.40966741	      1.38596015	     26.72884199	    -11.71241506	     -7.49999800	    -27.04252444	      0.68853767	     -4.07674231	      9.11203947	    -21.34401839	     15.82142681	     62.33860608	    102.60805969	     -5.23876347	    -14.91224505	      3.94067362	     70.46532608	     78.25530149
      3.42000000	     -9.71709436	     -0.48738970	     -2.14339034	     -0.42897025	      0.82878359	     -0.60768682	     63.36434306	      1.30610080	      2.61686980	     76.81497743	      1.34067427	     23.42223937	    -15.72795347	     -7.49999803	     62.54902361	     -0.74616906	      3.01695406	     77.67604315	      1.35570270	     26.31860605	    -11.93506133	     -7.49999803	    -26.43030380	      0.75525445	     -4.18828705	      8.87274134	    -20.75966855	     15.40740750	     61.10942365	    102.55985785	     -5.26011491	    -14.50589177	      3.79172883	     69.42246901	     78.16815714
      3.43000000	     -9.70513972	     -0.54452738	     -2.10731726	     -0.42481111	      0.83859139	     -0.60762505	     61.93901894	      1.35537062	      2.63708347	     75.05989093	      1.31004223	     23.01920420	    -15.74179129	     -7.49999804	     61.15043216	     -0.72287036	      3.08876084	     75.91738742	      1.32500837	     25.92685914	    -12.00295313	     -7.49999804	    -25.80710826	      0.84885311	     -4.29149387	      8.53032272	    -20.28556838	     15.14145403	     60.18102602	    102.47978661	     -5.34704135	    -14.17229110	      3.69774229	     68.47339903	     78.09880928
      3.44000000	     -9.56911552	     -0.56332157	     -2.09193386	     -0.42070154	      0.84859339	     -0.60769633	     60.37508866	      1.36437386	      2.65988902	     73.24607542	      1.27838518	     22.51785366	    -15.90227167	     -7.49999806	     59.59818993	     -0.69646179	      3.07119637	     74.09263878	      1.29316050	     25.42459477	    -12.21064255	     -7.49999806	    -25.27328764	      0.90870500	     -4.38752756	      8.24497950	    -19.74994571	     14.81680191	     59.04756508	    102.32957075	     -5.29062660	    -13.77726857	      3.59072486	     67.14971360	     78.01755352
      3.45000000	     -9.55053069	     -0.46686317	     -2.08736946	     -0.41669486	      0.85815497	     -0.60794088	     59.00636203	      1.25376968	      2.72388633	     71.46791144	      1.24735036	     21.92073012	    -16.13778967	     -7.49999808	     58.18466945	     -0.54157070	      3.02770975	     72.24123605	      1.26084742	     24.78571348	    -12.60327073	     -7.49999808	    -24.56333208	      0.85741984	     -4.46450751	      7.88928504	    -19.24712427	     14.49347510	     57.99783548	    102.12639516	     -5.22514584	    -13.39384588	      3.58307715	     65.84966492	     77.99709856
      3.46000000	     -9.43165850	     -0.37177378	     -2.03857050	     -0.41251283	      0.86777205	     -0.60819836	     57.51604729	      1.06441170	      2.71984298	     69.68879092	      1.21629885	     21.38237773	    -16.13145413	     -7.49999810	     56.64432286	     -0.33740313	      3.06523455	     70.37303577	      1.22824118	     24.16667869	    -12.76464449	     -7.49999810	    -23.94529351	      0.81934268	     -4.55688144	      7.49079739	    -18.77738334	     14.18881979	     57.09957425	    101.94987332	     -5.20574231	    -13.03103215	      3.50868381	     64.70632012	     77.96822134
      3.47000000	     -9.21878439	     -0.41964264	     -1.97921409	     -0.40806120	      0.87757938	     -0.60827320	     55.83133964	      1.04709242	      2.68448469	     67.79248787	      1.18320212	     20.87498579	    -16.23824633	     -7.49999812	     54.99942585	     -0.28253672	      3.16779987	     68.49746319	      1.19550626	     23.55797132	    -12.97736116	     -7.49999812	    -23.39836805	      0.90129594	     -4.58568530	      7.08320858	    -18.30834487	     13.81325494	     56.16349197	    101.75396487	     -5.17534778	    -12.66556058	      3.45877330	     63.52012762	     77.95767002
      3.48000000	     -9.08074287	     -0.50891137	     -1.90483919	     -0.40358967	      0.88713057	     -0.60831600	     54.20960303	      1.11470546	      2.67767947	     65.83072284	      1.14896286	     19.95370614	    -16.85280588	     -7.49999819	     53.45653474	     -0.27079901	      3.27024198	     66.59761772	      1.16234770	     22.64595486	    -13.53869125	     -7.49999819	    -22.72289507	      1.01912471	     -4.40856088	      6.43682143	    -17.86553177	     13.10934622	     55.39856142	    101.36178231	     -4.97537865	    -12.34345515	      3.76094714	     62.10305063	     78.25921956
      3.49000000	     -8.79561603	     -0.50804289	     -1.84844675	     -0.39913345	      0.89666399	     -0.60848839	     52.46863023	      1.05038891	      2.69197970	     63.92886356	      1.11576916	     19.55713901	    -16.70426989	     -7.49999821	     51.73701293	     -0.22493980	      3.26859273	     64.67733770	      1.12883249	     22.20564140	    -13.41082676	     -7.49999821	    -22.22087400	      1.04505950	     -4.43849399	      6.00362164	    -17.51825478	     12.79781733	     54.68490079	    101.21273814	     -5.05158762	    -11.98832458	      3.58428089	     61.14168522	     78.27403901
      3.50000000	     -8.58295055	     -0.48972045	     -1.79989534	     -0.39467002	      0.90590607	     -0.60867619	     50.83154365	      0.94352534	      2.64805782	     62.02253007	      1.08249736	     19.05678653	    -16.59603216	     -7.49999822	     50.08612573	     -0.13715396	      3.31163564	     62.71902215	      1.09465344	     21.66513482	    -13.42545130	     -7.49999822	    -21.60019697	      1.04895616	     -4.46783899	      5.57277269	    -17.16667750	     12.47724058	     53.91069442	    101.07591272	     -5.15122953	    -11.63961779	      3.42461515	     60.19582661	     78.28298291
